M48
; DRILL file KiCad 10.0.4 date 2026-08-10T18:24:38
; FORMAT={-:-/ absolute / metric / decimal}
; #@! TF.CreationDate,2026-08-10T18:24:38-04:00
; #@! TF.GenerationSoftware,Kicad,Pcbnew,10.0.4
; #@! TF.FileFunction,MixedPlating,1,2
FMAT,2
METRIC
; #@! TA.AperFunction,Plated,PTH,ViaDrill
T1C0.813
; #@! TA.AperFunction,Plated,PTH,ComponentDrill
T2C0.813
; #@! TA.AperFunction,Plated,PTH,ComponentDrill
T3C1.016
; #@! TA.AperFunction,Plated,PTH,ComponentDrill
T4C1.092
; #@! TA.AperFunction,Plated,PTH,ComponentDrill
T5C1.100
%
G90
G05
T1
X28.973Y4.93
T2
X36.796Y4.905
X36.796Y2.365
X38.68Y18.672
X38.68Y17.402
X38.68Y16.132
T3
X2.176Y15.141
X2.176Y12.601
X2.176Y10.061
X2.176Y7.521
X2.176Y4.981
X14.876Y15.141
X14.876Y12.601
X14.876Y10.061
X14.876Y7.521
X14.876Y4.981
T4
X3.69Y17.75
X3.69Y2.51
X6.23Y17.75
X6.23Y2.51
X8.77Y17.75
X8.77Y2.51
X11.31Y17.75
X11.31Y2.51
X13.85Y17.75
X13.85Y2.51
X16.39Y17.75
X16.39Y2.51
X18.93Y17.75
X18.93Y2.51
X21.47Y17.75
X21.47Y2.51
X24.01Y17.75
X24.01Y2.51
X26.55Y17.75
X26.55Y2.51
X29.09Y17.75
X29.09Y2.51
X31.63Y17.75
X31.63Y2.51
X34.17Y17.75
X34.17Y2.51
T5
X36.806Y13.719
X36.806Y11.179
X36.806Y8.639
M30
