M48
; DRILL file KiCad 10.0.4 date 2026-08-10T18:04:33
; FORMAT={-:-/ absolute / metric / decimal}
; #@! TF.CreationDate,2026-08-10T18:04:33-04:00
; #@! TF.GenerationSoftware,Kicad,Pcbnew,10.0.4
; #@! TF.FileFunction,Plated,1,2,PTH
FMAT,2
METRIC
; #@! TA.AperFunction,Plated,PTH,ComponentDrill
T1C0.750
; #@! TA.AperFunction,Plated,PTH,ComponentDrill
T2C0.762
; #@! TA.AperFunction,Plated,PTH,ComponentDrill
T3C0.800
; #@! TA.AperFunction,Plated,PTH,ViaDrill
T4C0.813
; #@! TA.AperFunction,Plated,PTH,ComponentDrill
T5C1.016
; #@! TA.AperFunction,Plated,PTH,ComponentDrill
T6C1.092
; #@! TA.AperFunction,Plated,PTH,ComponentDrill
T7C1.100
%
G90
G05
T1
X153.09Y-60.528
X153.09Y-61.798
X153.09Y-63.068
T2
X151.206Y-76.835
T3
X151.206Y-74.295
T4
X143.383Y-74.27
T5
X116.586Y-64.059
X116.586Y-66.599
X116.586Y-69.139
X116.586Y-71.679
X116.586Y-74.219
X129.286Y-64.059
X129.286Y-66.599
X129.286Y-69.139
X129.286Y-71.679
X129.286Y-74.219
T6
X118.1Y-61.45
X118.1Y-76.69
X120.64Y-61.45
X120.64Y-76.69
X123.18Y-61.45
X123.18Y-76.69
X125.72Y-61.45
X125.72Y-76.69
X128.26Y-61.45
X128.26Y-76.69
X130.8Y-61.45
X130.8Y-76.69
X133.34Y-61.45
X133.34Y-76.69
X135.88Y-61.45
X135.88Y-76.69
X138.42Y-61.45
X138.42Y-76.69
X140.96Y-61.45
X140.96Y-76.69
X143.5Y-61.45
X143.5Y-76.69
X146.04Y-61.45
X146.04Y-76.69
X148.58Y-61.45
X148.58Y-76.69
T7
X151.216Y-65.481
X151.216Y-68.021
X151.216Y-70.561
M30
